<svg width="194" height="64" viewBox="0 0 194 64" fill="none" xmlns="http://www.w3.org/2000/svg">
<path d="M12.6 15.6C12.25 16.5 11.7 17.65 11.45 18.1C10.6 19.75 11 19.95 15.65 20.1L20.25 20.25L20.5 35.5L20.75 50.75L24.35 50.9L28 51.05L28.1 35.65L28.25 20.25L79.5 20.1L130.75 20L131.4 18.35C131.75 17.5 132.3 16.35 132.55 15.9C132.8 15.4 133 14.8 133 14.5C133 14.15 113.25 14 73.1 14H13.25L12.6 15.6Z" fill="white"/>
<path d="M137.6 15.6C137.25 16.5 136.7 17.65 136.45 18.1C135.6 19.75 135.95 20 139.4 20C142.7 20 142.75 20 143.4 18.35C143.75 17.5 144.3 16.35 144.55 15.9C145.4 14.25 145.05 14 141.6 14C138.3 14 138.25 14 137.6 15.6Z" fill="white"/>
<path d="M149.6 15.6C149.25 16.5 148.7 17.65 148.45 18.1C147.6 19.75 147.95 20 151.4 20C154.7 20 154.75 20 155.4 18.35C155.75 17.5 156.3 16.35 156.55 15.9C157.4 14.25 157.05 14 153.6 14C150.3 14 150.25 14 149.6 15.6Z" fill="white"/>
<path d="M161.6 15.6C161.25 16.5 160.7 17.65 160.45 18.1C159.6 19.75 159.95 20 163.4 20C166.7 20 166.75 20 167.4 18.35C167.75 17.5 168.3 16.35 168.55 15.9C169.4 14.25 169.05 14 165.6 14C162.3 14 162.25 14 161.6 15.6Z" fill="white"/>
<path d="M41.25 26.65C37.25 29.05 35.7 30.95 34.6 34.8C33.8 37.55 33.85 39.05 34.8 42.3C36.4 47.85 39.85 50 46.85 50C49.95 49.95 51.75 49.7 53 49.1C54.55 48.35 54.75 48 54.9 46.05C55.1 43.65 54.45 42.55 53.4 43.35C53.05 43.6 51.65 44.15 50.35 44.5C48.45 45 47.55 45 46 44.55C44.1 44 42 42.3 42 41.4C42 41.2 45.1 41 48.9 41C53.6 41 56 40.8 56.4 40.4C57.2 39.6 57.15 36.3 56.35 33.75C55.25 30.3 54.05 28.6 51.85 27.25C50 26.2 49.05 26 45.95 26.05C43.9 26.05 41.8 26.35 41.25 26.65ZM48.15 31.75C48.7 32.15 49.15 33.15 49.15 34.1L49.25 35.75L45.65 35.9C42.3 36.05 42 35.95 42 35.05C42 33.65 44.7 31 46.1 31C46.7 31 47.65 31.35 48.15 31.75Z" fill="white"/>
<path d="M63.15 26.85L61 27.6V30.3C61 32.2 61.2 33 61.65 33C62.05 33 62.5 32.85 62.7 32.65C63.4 31.95 66.85 31 68.8 31C70.85 31 72.5 32.1 72.5 33.45C72.5 34.2 70.35 35 68.2 35C60 35 55.55 43 60.85 48.3C62.4 49.9 62.75 50 65.85 50C68.6 50 69.45 49.8 70.8 48.75C72.85 47.2 73 47.2 73 48.75C73 49.95 73.1 50 76.5 50H80V41.35C79.95 33.4 79.9 32.6 78.8 30.5C77.1 27.1 74.8 26 69.5 26.05C67.15 26.1 64.3 26.45 63.15 26.85ZM73 39.85C73 41.25 71.3 43.65 69.85 44.45C67.85 45.5 66 44.4 66 42.15C66 40.75 66.25 40.4 67.65 39.8C68.5 39.4 70.1 39.05 71.15 39.05C72.6 39 73 39.2 73 39.85Z" fill="white"/>
<path d="M85 38V50.05L88.9 49.9L92.75 49.75L92.9 42.1C93.05 33 93.4 32 96.6 32C99.5 32 100 33.55 100 42.75V50H103.75H107.5V42.7C107.5 33.65 108.05 32 111 32C114 32 114.25 32.6 114.4 41.85L114.6 50H118.3H122V40.7C122 32 121.95 31.25 120.9 29.4C119.45 26.85 117.75 26 114.15 26C111.35 26 110.6 26.3 107.4 28.6C106.7 29.1 106.4 29.05 105.65 28.2C104.2 26.55 102.75 26 99.85 26C97.8 26 96.7 26.3 95.3 27.25C93.05 28.75 93.1 28.75 92.9 27.35C92.75 26.35 92.45 26.25 88.9 26.1L85 25.95V38Z" fill="white"/>
<path d="M132 27.1C127.55 29.65 126 32.65 126 38.7C126 42.6 126.1 43.05 127.65 45.3C130 48.8 132.6 49.95 138.05 50C140.8 50 143.05 49.75 144.2 49.25C145.95 48.5 146 48.4 146 45.75C146 43.25 145.5 42.3 144.8 43.4C144.65 43.65 143.35 44.1 141.85 44.5C138 45.4 134 44.1 134 41.95C134 41.1 134.55 41 140.9 40.9L147.75 40.75L147.9 37.25C148.1 32.15 146.75 29.35 143 27.05C140.6 25.6 134.55 25.6 132 27.1ZM139.85 32.1C140.55 32.75 141 33.75 141 34.6V36.05L137.4 35.9C133.85 35.75 133.75 35.7 133.9 34.5C134.15 32.75 135.95 31 137.45 31C138.1 31 139.2 31.5 139.85 32.1Z" fill="white"/>
<path d="M152 38V50.05L155.9 49.9L159.75 49.75L159.9 42.75C159.95 38.5 160.25 35.3 160.6 34.6C161.5 32.9 163.7 31.9 165.75 32.3C167.25 32.55 167.5 32.45 167.75 31.4C167.95 30.7 168 29.3 167.9 28.2C167.75 26.3 167.7 26.25 165.55 26.1C163.9 26 162.95 26.2 161.95 26.95C160.2 28.25 160.2 28.25 159.85 27C159.6 26.1 159.15 26 155.8 26H152V38Z" fill="white"/>
</svg>
